# xmcd CD database file
#
# Track frame offsets:
#	150
#	13349
#	25041
#	36611
#	51145
#	61952
#	73702
#	87182
#	99509
#	112616
#	125978
#	138645
#
# Disc length: 2026 seconds
#
# Revision: 0
# Processed by: cddbd v1.5.2PL0 Copyright (c) Steve Scherf et al.
# Submitted via: CDex 1.70beta2
#
DISCID=a907e80c
DTITLE=Dizzy Gillespie - Dizzy's Blues
DYEAR=1900
DGENRE=Blues
TTITLE0=Worried Life Blues
TTITLE1=Empty Bed Blues Part I
TTITLE2=Something for you
TTITLE3=I Want Every Bit Of It
TTITLE4=4-F Blues
TTITLE5=Empty Bed Blues Part 2
TTITLE6=That's The Blues
TTITLE7=Ten Lessons With Timothy
TTITLE8=What's The Matter Now
TTITLE9=Seventh Avenue
TTITLE10=Sorta Kinda
TTITLE11=All Too Soon
EXTD=
EXTT0=
EXTT1=
EXTT2=
EXTT3=
EXTT4=
EXTT5=
EXTT6=
EXTT7=
EXTT8=
EXTT9=
EXTT10=
EXTT11=
PLAYORDER=
